<svg width="640" height="512" xmlns="http://www.w3.org/2000/svg">
 <!-- Font Awesome Free 5.15.2 by @fontawesome - https://fontawesome.com License - https://fontawesome.com/license/free (Icons: CC BY 4.0, Fonts: SIL OFL 1.1, Code: MIT License) -->

 <g>
  <title>background</title>
  <rect fill="none" id="canvas_background" height="602" width="802" y="-1" x="-1"/>
 </g>
 <g>
  <title>Layer 1</title>
  <path stroke="null" transform="rotate(12.452476501464844 317.4778137207035,250.49999999999997) " fill="#0000ff" id="svg_1" d="m477.03695,188.54209l-144.34397,0l0,54.21317c0,38.43327 -30.67309,69.70265 -68.37346,69.70265s-68.37346,-31.26938 -68.37346,-69.70265l0,-117.72003l-61.63108,37.7556c-18.32789,11.13306 -29.53354,31.36619 -29.53354,53.05146l0,45.79077l-75.97051,44.72587c-14.52936,8.51921 -19.56241,27.49382 -11.11069,42.30564l75.97051,134.1776c8.35676,14.81181 26.96953,19.84589 41.49889,11.32668l98.19189,-57.79512l129.71965,0c33.52199,0 60.77641,-27.78425 60.77641,-61.95791l15.1941,0c16.80848,0 30.3882,-13.84372 30.3882,-30.97896l0,-61.95791l7.59705,0c12.6301,0 22.79115,-10.35859 22.79115,-23.23422l0,-46.46843c0,-12.87563 -10.16106,-23.23422 -22.79115,-23.23422zm140.26056,-36.20666l-75.97051,-134.1776c-8.35676,-14.81181 -26.96953,-19.84589 -41.49889,-11.32668l-98.19189,57.79512l-97.05233,0c-11.39558,0 -22.50626,3.29151 -32.1925,9.3905l-31.81265,20.23313c-8.92654,5.61494 -14.24447,15.58629 -14.24447,26.2353l0,122.27007c0,21.39484 16.9984,38.7237 37.98526,38.7237s37.98526,-17.32885 37.98526,-38.7237l0,-85.19213l174.73218,0c29.34361,0 53.17936,24.29912 53.17936,54.21317l0,27.59063l75.97051,-44.72587c14.52936,-8.61602 19.46744,-27.49382 11.11069,-42.30564z"/>
 </g>
</svg>